<?xml version="1.0" encoding="UTF-8"?>
<svg xmlns="http://www.w3.org/2000/svg" viewBox="0 0 117.92 31.1">
  <defs>
    <style>
      .cls-1 {
        fill: #34495e;
      }
    </style>
  </defs>
  <g id="_Слой_5" data-name="Слой 5">
    <circle class="cls-1" cx="4.59" cy="15.45" r=".49"/>
    <path class="cls-1" d="M13.35,3.34L2.08,9.48l2.25,1.13v3.31h0c0,.13.11.24.24.24s.24-.11.24-.24h0v-3.07l2.47,1.13s-.42,1.87-.83,3.67l.52.47s.16-4.48,4.23-5.96c4.06-1.47,7.17,1.03,8.03,1.79l5.57-2.52L13.35,3.34Z"/>
  </g>
  <g id="_Слой_4" data-name="Слой 4">
    <g>
      <path d="M19.8,25.17v-8.3h1.27v1.18c.61-.91,1.49-1.37,2.64-1.37.5,0,.96.09,1.38.27.42.18.73.42.94.71.21.29.35.64.44,1.04.05.26.08.72.08,1.37v5.1h-1.41v-5.05c0-.57-.05-1-.16-1.29-.11-.28-.3-.51-.58-.68-.28-.17-.61-.25-.98-.25-.6,0-1.12.19-1.55.57-.44.38-.65,1.1-.65,2.16v4.53h-1.41Z"/>
      <path d="M27.75,25.86l1.37.2c.06.42.22.73.48.92.35.26.83.39,1.43.39.65,0,1.15-.13,1.51-.39.35-.26.59-.62.72-1.09.07-.29.11-.89.1-1.8-.61.72-1.38,1.09-2.3,1.09-1.14,0-2.02-.41-2.65-1.23-.62-.82-.94-1.81-.94-2.96,0-.79.14-1.52.43-2.19.29-.67.7-1.19,1.25-1.55.54-.36,1.18-.55,1.92-.55.98,0,1.79.4,2.42,1.19v-1h1.3v7.17c0,1.29-.13,2.21-.39,2.75-.26.54-.68.96-1.25,1.28s-1.27.47-2.11.47c-.99,0-1.79-.22-2.4-.67s-.9-1.12-.88-2.01ZM28.92,20.87c0,1.09.22,1.88.65,2.38.43.5.97.75,1.62.75s1.19-.25,1.62-.75c.44-.5.66-1.28.66-2.34s-.23-1.78-.68-2.3c-.45-.52-.99-.77-1.63-.77s-1.16.25-1.59.76-.66,1.26-.66,2.26Z"/>
      <path d="M36.19,25.17v-11.45h1.41v11.45h-1.41Z"/>
      <path d="M39.09,15.33v-1.62h1.41v1.62h-1.41ZM39.09,25.17v-8.3h1.41v8.3h-1.41Z"/>
      <path d="M41.39,22.69l1.39-.22c.08.56.3.98.65,1.28.36.3.86.45,1.5.45s1.12-.13,1.44-.39c.31-.26.47-.57.47-.93,0-.32-.14-.57-.41-.75-.19-.12-.67-.28-1.44-.48-1.03-.26-1.75-.49-2.14-.68-.4-.19-.7-.45-.91-.79-.21-.34-.31-.71-.31-1.11,0-.37.08-.71.25-1.03.17-.31.4-.58.69-.79.22-.16.52-.3.89-.41.38-.11.78-.17,1.21-.17.65,0,1.22.09,1.71.28s.86.44,1.09.76.4.75.48,1.29l-1.38.19c-.06-.43-.24-.76-.54-1-.3-.24-.72-.36-1.27-.36-.65,0-1.11.11-1.38.32-.28.21-.41.46-.41.75,0,.18.06.35.17.49.11.15.29.28.54.38.14.05.55.17,1.24.36.99.27,1.69.48,2.08.65.39.17.7.42.93.74.22.32.34.72.34,1.2s-.14.91-.41,1.32-.67.73-1.18.96-1.1.34-1.75.34c-1.08,0-1.9-.22-2.46-.67-.57-.45-.93-1.11-1.08-1.99Z"/>
      <path d="M49.27,25.17v-11.45h1.41v4.11c.66-.76,1.48-1.14,2.48-1.14.61,0,1.15.12,1.6.36s.78.58.97,1c.2.43.29,1.05.29,1.86v5.26h-1.41v-5.26c0-.7-.15-1.21-.46-1.54s-.74-.48-1.29-.48c-.42,0-.81.11-1.18.32-.37.22-.63.51-.79.88-.16.37-.23.88-.23,1.53v4.54h-1.41Z"/>
    </g>
    <g>
      <path d="M72.59,25.11l3.03-4.31-2.8-3.98h1.76l1.27,1.95c.24.37.43.68.58.93.23-.34.44-.65.63-.91l1.4-1.96h1.68l-2.87,3.91,3.09,4.39h-1.73l-1.7-2.58-.45-.7-2.18,3.27h-1.7Z"/>
      <path d="M80.84,28.29v-11.48h1.28v1.08c.3-.42.64-.74,1.02-.95.38-.21.84-.32,1.38-.32.71,0,1.33.18,1.88.55.54.36.95.88,1.23,1.54.28.66.41,1.39.41,2.18,0,.85-.15,1.61-.46,2.29s-.75,1.2-1.33,1.56c-.58.36-1.19.54-1.83.54-.47,0-.89-.1-1.26-.3-.37-.2-.68-.45-.92-.75v4.04h-1.41ZM82.11,21.01c0,1.07.22,1.86.65,2.37.43.51.96.77,1.57.77s1.16-.26,1.61-.79c.45-.53.67-1.35.67-2.46s-.22-1.85-.65-2.38c-.44-.53-.95-.79-1.56-.79s-1.13.28-1.59.84c-.46.56-.69,1.37-.69,2.44Z"/>
      <path d="M89.04,25.11v-8.3h1.27v1.26c.32-.59.62-.98.89-1.16s.57-.28.9-.28c.47,0,.96.15,1.45.45l-.48,1.3c-.34-.2-.69-.3-1.03-.3-.31,0-.58.09-.83.28-.25.19-.42.44-.52.77-.16.5-.23,1.05-.23,1.64v4.34h-1.41Z"/>
      <path d="M99.37,22.44l1.45.18c-.23.85-.65,1.51-1.27,1.98-.62.47-1.41.7-2.38.7-1.21,0-2.18-.37-2.89-1.12-.71-.75-1.07-1.8-1.07-3.14s.36-2.48,1.08-3.25c.72-.77,1.65-1.16,2.8-1.16s2.02.38,2.72,1.13c.7.76,1.05,1.82,1.05,3.19,0,.08,0,.21,0,.38h-6.19c.05.91.31,1.61.77,2.09.46.48,1.04.73,1.73.73.52,0,.96-.14,1.32-.41.36-.27.65-.7.87-1.3ZM94.75,20.17h4.63c-.06-.7-.24-1.22-.53-1.57-.45-.54-1.03-.81-1.74-.81-.65,0-1.19.22-1.63.65-.44.43-.68,1.01-.73,1.73Z"/>
      <path d="M101.34,22.64l1.39-.22c.08.56.3.98.65,1.28.36.3.86.45,1.5.45s1.12-.13,1.44-.39c.31-.26.47-.57.47-.93,0-.32-.14-.57-.41-.75-.19-.12-.67-.28-1.44-.48-1.03-.26-1.75-.49-2.14-.68-.4-.19-.7-.45-.91-.79-.21-.34-.31-.71-.31-1.11,0-.37.08-.71.25-1.03.17-.31.4-.58.69-.79.22-.16.52-.3.89-.41.38-.11.78-.17,1.21-.17.65,0,1.22.09,1.71.28s.86.44,1.09.76.4.75.48,1.29l-1.38.19c-.06-.43-.24-.76-.54-1-.3-.24-.72-.36-1.27-.36-.65,0-1.11.11-1.38.32-.28.21-.41.46-.41.75,0,.18.06.35.17.49.11.15.29.28.54.38.14.05.55.17,1.24.36.99.27,1.69.48,2.08.65.39.17.7.42.93.74.22.32.34.72.34,1.2s-.14.91-.41,1.32-.67.73-1.18.96-1.1.34-1.75.34c-1.08,0-1.9-.22-2.46-.67-.57-.45-.93-1.11-1.08-1.99Z"/>
      <path d="M108.65,22.64l1.39-.22c.08.56.3.98.65,1.28.36.3.86.45,1.5.45s1.12-.13,1.44-.39c.31-.26.47-.57.47-.93,0-.32-.14-.57-.41-.75-.19-.12-.67-.28-1.44-.48-1.03-.26-1.75-.49-2.14-.68-.4-.19-.7-.45-.91-.79-.21-.34-.31-.71-.31-1.11,0-.37.08-.71.25-1.03.17-.31.4-.58.69-.79.22-.16.52-.3.89-.41.38-.11.78-.17,1.21-.17.65,0,1.22.09,1.71.28s.86.44,1.09.76.4.75.48,1.29l-1.38.19c-.06-.43-.24-.76-.54-1-.3-.24-.72-.36-1.27-.36-.65,0-1.11.11-1.38.32-.28.21-.41.46-.41.75,0,.18.06.35.17.49.11.15.29.28.54.38.14.05.55.17,1.24.36.99.27,1.69.48,2.08.65.39.17.7.42.93.74.22.32.34.72.34,1.2s-.14.91-.41,1.32-.67.73-1.18.96-1.1.34-1.75.34c-1.08,0-1.9-.22-2.46-.67-.57-.45-.93-1.11-1.08-1.99Z"/>
    </g>
    <g>
      <rect x="9.51" y="13" width="8.55" height="1.51"/>
      <polygon points="9.51 18.33 9.51 19.84 9.51 23.66 9.51 25.11 9.51 25.17 18.06 25.17 18.06 23.66 11.02 23.66 11.02 19.84 18.06 19.84 18.06 18.33 11.02 18.33 9.51 18.33"/>
    </g>
    <g>
      <rect class="cls-1" x="62.9" y="13" width="8.55" height="1.51"/>
      <polygon class="cls-1" points="62.9 18.33 62.9 19.84 62.9 23.66 62.9 25.11 62.9 25.17 71.45 25.17 71.45 23.66 64.41 23.66 64.41 19.84 71.45 19.84 71.45 18.33 64.41 18.33 62.9 18.33"/>
    </g>
  </g>
</svg>