<?xml version="1.0" encoding="UTF-8"?>
<svg id="_Слой_1" data-name="Слой 1" xmlns="http://www.w3.org/2000/svg" viewBox="0 0 233.5 48.97">
  <defs>
    <style>
      .cls-1 {
        fill: #fff;
      }

      .cls-2 {
        fill: #1abc9c;
      }
    </style>
  </defs>
  <g id="_Слой_5" data-name=" Слой 5">
    <path class="cls-2" d="M18.66,20.66v-5.33c0-.19.05-.36.16-.53.44-.63,1.91-2.17,5.7-2.13s5.27,1.62,5.71,2.26c.11.16.16.32.16.51v5.21s-1.76-1.47-5.86-1.43-5.86,1.43-5.86,1.43h-.01Z"/>
    <path class="cls-2" d="M31.43,16.35l8.47-2.11-15.38-6.59-6.3,2.79h-3.07v6.76h.53v-1.31l1.9.54v-1.28c0-.38.09-.75.32-1.06.63-.86,2.34-2.41,6.61-2.41s5.81,1.39,6.51,2.28c.28.35.43.78.42,1.23v1.17Z"/>
    <polygon class="cls-2" points="9.23 14.21 14.3 11.98 14.3 15.57 9.23 14.21"/>
    <circle class="cls-2" cx="15.46" cy="17.37" r=".54"/>
    <path class="cls-2" d="M14.96,19.9c-.16,0-.3-.15-.27-.31l.22-1.85h1.08l.26,1.83c.03.16-.11.31-.27.31h-1.01Z"/>
    <path class="cls-2" d="M20.69,21.95v10.13s1.55.98,2.59-.57v-11.07l-2.59,1.51Z"/>
    <path class="cls-2" d="M28.41,21.95v10.13s-1.55.98-2.59-.57v-11.07l2.59,1.51Z"/>
    <path class="cls-2" d="M21.53,33.89l1.76,3.34h2.42l1.85-3.34s-.69.13-1.32-.2-.71-.96-1.7-.96-1.02.79-1.68,1.01c-.85.27-1.33.15-1.33.15Z"/>
    <polygon class="cls-2" points="23.64 37.79 25.46 37.79 24.55 39.42 23.64 37.79"/>
    <path class="cls-2" d="M21.22,37.36c-3.39-1.36-5.58-4.59-5.58-8.24,0-4.9,3.99-8.89,8.89-8.89s8.89,3.99,8.89,8.89c0,3.65-2.18,6.88-5.56,8.24l-.5-1.25c2.87-1.16,4.73-3.91,4.73-6.99,0-4.16-3.38-7.54-7.54-7.54s-7.54,3.38-7.54,7.54c0,3.1,1.86,5.85,4.73,7l-.5,1.25h-.01Z"/>
  </g>
  <g>
    <path class="cls-1" d="M48.59,34.56V13.72h4.05v20.85h-4.05Z"/>
    <path class="cls-1" d="M67.5,34.56v-8.4c0-1.07-.25-1.92-.74-2.55-.5-.62-1.19-.94-2.08-.94-.75,0-1.58.26-2.47.77-.89.52-1.58,1.23-2.05,2.14v8.96h-3.54v-14.89h3.54v2.23c1.35-1.75,3.21-2.62,5.57-2.62,1.57,0,2.85.53,3.84,1.59.99,1.06,1.49,2.53,1.49,4.39v9.29h-3.54Z"/>
    <path class="cls-1" d="M89.18,19.67v14.44c0,1.23-.21,2.31-.64,3.23-.43.92-1.01,1.64-1.76,2.14-.74.51-1.55.88-2.41,1.13s-1.78.37-2.75.37c-2.44,0-4.72-.7-6.85-2.11l1.31-2.29c1.75,1.07,3.56,1.61,5.45,1.61,1.17,0,2.15-.34,2.93-1.03.78-.68,1.18-1.7,1.18-3.05v-1.49c-.54.73-1.23,1.32-2.08,1.74-.85.43-1.74.64-2.65.64-2.14,0-3.89-.76-5.24-2.28-1.35-1.52-2.03-3.39-2.03-5.61s.68-4.07,2.04-5.6c1.36-1.53,3.1-2.29,5.23-2.29.91,0,1.8.22,2.65.65.85.44,1.55,1.02,2.08,1.76v-1.97h3.54ZM81.97,31.73c1.51,0,2.73-.62,3.66-1.85v-5.51c-.93-1.23-2.15-1.85-3.66-1.85-1.25,0-2.32.45-3.22,1.35-.89.9-1.34,1.98-1.34,3.23s.45,2.36,1.34,3.26c.89.9,1.97,1.35,3.22,1.35Z"/>
    <path class="cls-1" d="M92.9,13.42h3.54v21.14h-3.54V13.42Z"/>
    <path class="cls-1" d="M114.73,26.82c0,.36-.03.71-.09,1.04h-11.67c0,1.25.43,2.27,1.28,3.05.85.78,2.04,1.18,3.57,1.18,1.73,0,3.23-.49,4.5-1.46l1.37,2.2c-1.61,1.45-3.71,2.17-6.31,2.17-2.24,0-4.14-.73-5.7-2.2-1.56-1.47-2.34-3.3-2.34-5.48s.75-4.15,2.26-5.73,3.35-2.37,5.51-2.37c2.36,0,4.22.7,5.58,2.11,1.36,1.41,2.04,3.24,2.04,5.48ZM111.36,25.54c-.2-1.01-.67-1.83-1.4-2.46-.73-.62-1.69-.94-2.86-.94-1.03,0-1.92.3-2.67.91-.74.61-1.25,1.43-1.5,2.49h8.43Z"/>
    <path class="cls-1" d="M125.84,30.3c0-.46-.21-.82-.64-1.09s-.96-.46-1.59-.57c-.64-.11-1.32-.26-2.05-.46-.74-.2-1.42-.43-2.05-.7-.64-.27-1.17-.72-1.59-1.35s-.64-1.43-.64-2.38c0-1.27.51-2.34,1.52-3.22,1.01-.87,2.47-1.31,4.38-1.31,2.22,0,4.13.75,5.72,2.26l-1.64,2.17c-1.25-1.13-2.61-1.7-4.08-1.7-.75,0-1.38.16-1.88.48-.5.32-.74.73-.74,1.25s.3.92.89,1.21c.6.29,1.31.52,2.16.7.84.18,1.69.39,2.55.64.85.25,1.58.7,2.17,1.34s.89,1.47.89,2.49c0,1.51-.55,2.71-1.64,3.6-1.09.89-2.62,1.34-4.59,1.34-2.46,0-4.61-.79-6.43-2.38l1.61-2.26c1.57,1.29,3.18,1.94,4.82,1.94.87,0,1.57-.18,2.08-.55.52-.37.77-.85.77-1.44Z"/>
    <path class="cls-1" d="M134.41,25.93v8.64h-1.67V13.72h7.21c2.16,0,3.83.56,4.99,1.68s1.74,2.59,1.74,4.39c0,1.65-.54,3.04-1.61,4.17-1.07,1.13-2.5,1.78-4.29,1.94l6.49,8.67h-2.14l-6.4-8.64h-4.32ZM140.01,15.26h-5.6v9.11h5.6c1.61,0,2.84-.42,3.71-1.25s1.29-1.95,1.29-3.34-.43-2.49-1.29-3.31-2.1-1.22-3.71-1.22Z"/>
    <path class="cls-1" d="M154.01,35.01c-1.53,0-2.73-.39-3.62-1.16-.88-.77-1.33-1.8-1.33-3.07s.47-2.34,1.4-3.08c.93-.74,2.07-1.23,3.4-1.44,1.45-.22,3.44-.35,5.99-.39v-1.52c0-1.41-.36-2.38-1.07-2.9-.71-.53-1.71-.79-2.98-.79-1.79,0-3.37.69-4.74,2.05l-1.01-1.07c1.65-1.61,3.66-2.41,6.04-2.41,1.01,0,1.88.14,2.59.42.71.28,1.25.59,1.59.94s.62.8.8,1.37.29,1,.31,1.3c.02.3.03.67.03,1.1v10.21h-1.58v-2.89c-1.75,2.22-3.69,3.34-5.84,3.34ZM154.01,33.58c2.24,0,4.19-1.26,5.84-3.78v-2.5c-2.38.02-4.29.14-5.72.36-.28.04-.58.11-.91.22-.33.11-.7.28-1.12.51-.42.23-.76.55-1.04.97s-.42.89-.42,1.43c0,1.01.35,1.73,1.06,2.16.7.43,1.47.64,2.31.64Z"/>
    <path class="cls-1" d="M172.95,35.01c-2.2,0-4.08-.79-5.63-2.38v8.01h-1.58v-20.96h1.58v1.97c1.55-1.61,3.42-2.41,5.63-2.41s3.98.77,5.51,2.32c1.53,1.55,2.29,3.4,2.29,5.57s-.76,4.02-2.29,5.57c-1.53,1.55-3.37,2.32-5.51,2.32ZM172.59,20.57c-1.05,0-2.04.24-2.96.73-.92.49-1.69,1.14-2.31,1.95v7.74c.6.83,1.36,1.49,2.29,1.97.93.48,1.92.71,2.98.71,1.79,0,3.32-.64,4.6-1.92,1.28-1.28,1.92-2.82,1.92-4.63s-.64-3.32-1.92-4.62c-1.28-1.29-2.81-1.94-4.6-1.94Z"/>
    <path class="cls-1" d="M184.05,16.72c-.24-.24-.36-.54-.36-.89s.12-.66.36-.91c.24-.25.54-.37.89-.37s.66.12.91.37c.25.25.37.55.37.91s-.12.66-.37.89-.55.36-.91.36-.66-.12-.89-.36ZM184.17,34.56v-14.89h1.58v14.89h-1.58Z"/>
    <path class="cls-1" d="M204.18,34.56h-1.58v-1.94c-1.55,1.59-3.42,2.38-5.63,2.38s-3.98-.77-5.51-2.32c-1.53-1.55-2.29-3.4-2.29-5.57s.76-4.02,2.29-5.57c1.53-1.55,3.37-2.32,5.51-2.32s4.08.8,5.63,2.41v-8.22h1.58v21.14ZM197.34,33.67c1.05,0,2.04-.24,2.96-.71.92-.48,1.69-1.13,2.31-1.97v-7.74c-.62-.81-1.39-1.46-2.32-1.95-.93-.49-1.92-.73-2.95-.73-1.79,0-3.32.65-4.6,1.94-1.28,1.29-1.92,2.83-1.92,4.62s.64,3.35,1.92,4.63c1.28,1.28,2.81,1.92,4.6,1.92Z"/>
    <path class="cls-1" d="M221.66,32.73c-1.51,1.52-3.47,2.28-5.9,2.28s-4.39-.76-5.9-2.28c-1.51-1.52-2.26-3.39-2.26-5.61s.75-4.09,2.26-5.61c1.51-1.52,3.47-2.28,5.9-2.28s4.39.76,5.9,2.28c1.51,1.52,2.26,3.39,2.26,5.61s-.75,4.09-2.26,5.61ZM215.77,33.76c1.87,0,3.43-.64,4.69-1.94,1.26-1.29,1.89-2.86,1.89-4.71s-.63-3.39-1.89-4.69-2.82-1.95-4.69-1.95-3.46.65-4.71,1.95c-1.25,1.3-1.88,2.86-1.88,4.69s.63,3.42,1.88,4.71c1.25,1.29,2.82,1.94,4.71,1.94Z"/>
  </g>
  <rect class="cls-1" x="184.17" y="19.67" width="1.58" height="15.34"/>
</svg>